<?xml version="1.0" encoding="utf-8"?>
<!-- Generator: Adobe Illustrator 27.0.0, SVG Export Plug-In . SVG Version: 6.00 Build 0)  -->
<svg version="1.1" id="Livello_1" xmlns="http://www.w3.org/2000/svg" xmlns:xlink="http://www.w3.org/1999/xlink" x="0px" y="0px"
	 viewBox="0 0 100 100" style="enable-background:new 0 0 100 100;" xml:space="preserve">
<style type="text/css">
	.st0{fill:url(#SVGID_1_);}
	.st1{fill:url(#SVGID_00000115491846784956695900000017918435594703067788_);}
	.st2{fill:url(#SVGID_00000110433602181197233260000000472116444884759986_);}
	.st3{fill:url(#SVGID_00000023244283613580263190000007953755205506167487_);}
	.st4{fill:#FCF4C8;}
	.st5{fill:url(#SVGID_00000071538786407404091910000003455419744337978285_);}
	.st6{fill:url(#SVGID_00000006667726542132468420000018031494864986345634_);}
	.st7{fill:url(#SVGID_00000018218367620025934150000016783166641978044821_);}
	.st8{fill:url(#SVGID_00000157288419481400252990000018125425548694783929_);}
	.st9{fill:url(#SVGID_00000070839947544932538920000017042190463225828772_);}
	.st10{fill:url(#SVGID_00000150825195941872259840000015398397840525276602_);}
	.st11{fill:url(#SVGID_00000150081329179560636050000005599239302558401726_);}
	.st12{fill:url(#SVGID_00000034049963244026901540000013226457889050965695_);}
	.st13{fill:#FCF9DE;}
	.st14{fill:url(#SVGID_00000093873279662787256120000004872749883423615126_);}
	.st15{fill:url(#SVGID_00000176754652786519797740000011236472829162982552_);}
	.st16{fill:url(#SVGID_00000139253043120247136980000015283777370355304068_);}
	.st17{fill:url(#SVGID_00000111890251458812830590000013443333568825243536_);}
	.st18{fill:url(#SVGID_00000072971358798351335620000011427746094539958458_);}
	.st19{fill:url(#SVGID_00000176032449808308074020000012572788831654891911_);}
	.st20{fill:url(#SVGID_00000137821476376347143140000015472933415582202502_);}
	.st21{fill:url(#SVGID_00000016773518104789517150000017244011744234058627_);}
	.st22{fill:url(#SVGID_00000073703362183865425030000013389355214602368417_);}
	.st23{fill:url(#SVGID_00000055696894153988698460000010168130777138391428_);}
	.st24{fill:url(#SVGID_00000171680618754396590860000007525383976938407824_);}
</style>
<g>
	<radialGradient id="SVGID_1_" cx="48.5272" cy="54.2927" r="11.3639" gradientUnits="userSpaceOnUse">
		<stop  offset="0" style="stop-color:#FF8F00"/>
		<stop  offset="0.3576" style="stop-color:#FF8300"/>
		<stop  offset="1" style="stop-color:#FF6900"/>
	</radialGradient>
	<path class="st0" d="M40.1,58.3c2.1,0.3,4.1-0.5,6.1-0.5c2.3,0,4.7,0.4,7,0.5c2.9,0.1,4.9-1.3,7.6-1.7c1.9-0.3,3.1-0.4,3.2-2.5
		c0.1-1.3-0.6-2.9-2.1-1.8c0.6-2.7-4-1.9-5.1-0.9c0.2-2.4-4.1-0.9-5.1,0.1c-1.1-1.1-3.8-0.7-4.6,0.6c-0.9-1.1-2.8-0.3-3.7,0.6
		c0-1.1-0.9-1.8-1.7-0.8c-0.5-1.9-3.2-1.8-3.9-0.2c-0.9-2.1-5.3,0.2-4.6,1.8L33,54.2C32.9,54.7,38.9,58.1,40.1,58.3z"/>
	<g>
		
			<radialGradient id="SVGID_00000015313192601146476750000014561431755091639980_" cx="67.073" cy="44.5167" r="0.1262" gradientUnits="userSpaceOnUse">
			<stop  offset="0" style="stop-color:#FFF500"/>
			<stop  offset="0.3576" style="stop-color:#FFDD00"/>
			<stop  offset="1" style="stop-color:#FFA800"/>
		</radialGradient>
		<path style="fill:url(#SVGID_00000015313192601146476750000014561431755091639980_);" d="M67,44.6C67,44.6,67,44.6,67,44.6
			C67,44.6,67,44.6,67,44.6C67.3,44.3,67.3,44.3,67,44.6z"/>
		
			<radialGradient id="SVGID_00000040544707632758981450000007931470982155408818_" cx="71.2866" cy="40.1568" r="9.6179" gradientUnits="userSpaceOnUse">
			<stop  offset="0" style="stop-color:#FFF500"/>
			<stop  offset="0.3576" style="stop-color:#FFDD00"/>
			<stop  offset="1" style="stop-color:#FFA800"/>
		</radialGradient>
		<path style="fill:url(#SVGID_00000040544707632758981450000007931470982155408818_);" d="M67.9,36.5c-8-4.5-10.3,11-0.9,8.1
			c0,0,0,0,0-0.1c0.3-0.3,0.3-0.2,0.1,0.1c0,0,0,0-0.1,0c-1.8,8.1,18.9,3.6,11.7-5.1C88.8,32.3,70.7,27.1,67.9,36.5z"/>
		
			<radialGradient id="SVGID_00000049183210848503918160000003152062005169194659_" cx="71.2908" cy="40.16" r="9.6128" gradientUnits="userSpaceOnUse">
			<stop  offset="0" style="stop-color:#FF8F00"/>
			<stop  offset="0.3576" style="stop-color:#FF8300"/>
			<stop  offset="1" style="stop-color:#FF6900"/>
		</radialGradient>
		<path style="fill:url(#SVGID_00000049183210848503918160000003152062005169194659_);" d="M75,45.9c-1.4,0.8-3.3,1.4-4.8,0.7
			c-1.1-0.5-1.8-1.1-2.3-2.3c-0.2-0.5-0.3-1-0.3-1.5c-2.8,0.6-6.1,0.1-6.8-2.1c0,2.7,1.8,5.2,6.1,3.9c-1.8,8.1,18.9,3.6,11.7-5.1
			c4.4-3.1,3.5-5.9,0.8-7.2c0.3,2.5-0.8,5.1-3.3,6.2c1,0.8,1.8,1.8,1.7,3.2C77.9,43.5,76.6,45,75,45.9z"/>
		<path class="st4" d="M78.4,34.2c-3-3.6-9.7-0.1-10.4,4.2c-1.7-1.9-5.8-1.3-5.5,1.9l0.2,0.6c2.7,0.1,6.6-1.4,8.4,1.8
			c-0.9-2.3-1.2-4.4,0.4-6.5C72.8,34.5,76.3,33.2,78.4,34.2z"/>
	</g>
	<g>
		
			<radialGradient id="SVGID_00000013173769180870141120000003279817787077132960_" cx="35.8254" cy="45.5113" r="5.523713e-02" gradientUnits="userSpaceOnUse">
			<stop  offset="0" style="stop-color:#FFF500"/>
			<stop  offset="0.3576" style="stop-color:#FFDD00"/>
			<stop  offset="1" style="stop-color:#FFA800"/>
		</radialGradient>
		<path style="fill:url(#SVGID_00000013173769180870141120000003279817787077132960_);" d="M35.9,45.5
			C35.7,45.5,35.7,45.6,35.9,45.5C35.9,45.5,35.9,45.5,35.9,45.5C35.9,45.5,35.9,45.5,35.9,45.5z"/>
		
			<radialGradient id="SVGID_00000145018838863412527790000010996341996549705121_" cx="32.9803" cy="45.9477" r="4.2053" gradientUnits="userSpaceOnUse">
			<stop  offset="0" style="stop-color:#FFF500"/>
			<stop  offset="0.3576" style="stop-color:#FFDD00"/>
			<stop  offset="1" style="stop-color:#FFA800"/>
		</radialGradient>
		<path style="fill:url(#SVGID_00000145018838863412527790000010996341996549705121_);" d="M33.9,48.4c2.2,3.3,6.2-2.2,2-3
			c0,0,0,0,0,0c-0.2,0-0.2,0,0,0c0,0,0,0,0,0c2.3-2.8-6.6-5.1-5.5-0.4C25,45.9,31,51.6,33.9,48.4z"/>
		<path class="st4" d="M28.6,47.8c0.4-1,1.3-1.8,2.5-1.8c-0.2-0.5-0.3-1,0-1.6c0.4-0.7,1.2-1,1.9-1c0.7,0,1.6,0.1,2,0.7
			c0.3,0.4,0.5,0.8,0.4,1.3c0,0.2-0.1,0.4-0.2,0.6c1.2,0.3,2.4,1.2,2.2,2.2c0.5-1,0.3-2.4-1.6-2.7c2.3-2.8-6.6-5.1-5.5-0.4
			C28,45.5,27.8,46.7,28.6,47.8z"/>
		
			<radialGradient id="SVGID_00000147220393530837763200000002764482349436011139_" cx="33.1131" cy="47.1423" r="2.8763" gradientUnits="userSpaceOnUse">
			<stop  offset="0" style="stop-color:#FF8F00"/>
			<stop  offset="0.3576" style="stop-color:#FF8300"/>
			<stop  offset="1" style="stop-color:#FF6900"/>
		</radialGradient>
		<path style="fill:url(#SVGID_00000147220393530837763200000002764482349436011139_);" d="M34.3,47.7c0.3,1.1,2,1.6,2.5,0.4l0-0.3
			c-1-0.6-2.8-0.8-2.9-2.3c-0.1,1-0.4,1.9-1.5,2.4c-0.9,0.4-2.4,0.2-3.1-0.6C29.9,49.3,33.2,49.2,34.3,47.7z"/>
	</g>
	<g>
		
			<radialGradient id="SVGID_00000169526050248418476570000013111936588876248458_" cx="49.1998" cy="59.4719" r="15.9704" gradientUnits="userSpaceOnUse">
			<stop  offset="0" style="stop-color:#FFF500"/>
			<stop  offset="0.3576" style="stop-color:#FFDD00"/>
			<stop  offset="1" style="stop-color:#FFA800"/>
		</radialGradient>
		<path style="fill:url(#SVGID_00000169526050248418476570000013111936588876248458_);" d="M39.9,77c3.5,2.8,11.6,5.2,18.6,0
			c-5.1-5.2-7-10.4-6.7-17.6c0.3-5.6,0.3-14.8,2.4-19.9c-2.6,0.4-5.8-0.2-8.6-0.6C45.3,46,50.5,71,39.9,77z"/>
		
			<radialGradient id="SVGID_00000053519159404463434920000001525634819371389318_" cx="50.1364" cy="51.6175" r="10.1929" gradientUnits="userSpaceOnUse">
			<stop  offset="0" style="stop-color:#FF8F00"/>
			<stop  offset="0.3576" style="stop-color:#FF8300"/>
			<stop  offset="1" style="stop-color:#FF6900"/>
		</radialGradient>
		<path style="fill:url(#SVGID_00000053519159404463434920000001525634819371389318_);" d="M52.6,43.6c0.3-1.9,1.6-3.8,1.9-5.7
			c-1.4-0.1-3.2,1-4.6,1.4c-1.3,0.4-2.9,0.6-4.1,1.2H46c0.2,5.6,1.8,11.5,1.8,16.9c0-4.9,0.2-9.7,0.2-14.6
			c0.8,7.4,0.6,15.1,1.6,22.5c0-4.5-0.2-9,0.2-13.4c0.2-2.7-0.5-6.6,0.3-9.1c0.3,4,0,8.1,0.8,12.1c0.7-2,0.1-5.5,0.3-7.8
			c0.1-1.4,0.4-2.8,0.6-4.2c0-0.7,0.1-1.4,0.2-2c0,0.7-0.1,1.3-0.2,2c0,2.2,0.5,4.6-0.1,6.6C52.3,47.7,52.2,45.5,52.6,43.6z"/>
		
			<radialGradient id="SVGID_00000042738330443542499410000014017095409079832742_" cx="51.8923" cy="41.9278" r="0.713" gradientUnits="userSpaceOnUse">
			<stop  offset="0" style="stop-color:#FF8F00"/>
			<stop  offset="0.3576" style="stop-color:#FF8300"/>
			<stop  offset="1" style="stop-color:#FF6900"/>
		</radialGradient>
		<path style="fill:url(#SVGID_00000042738330443542499410000014017095409079832742_);" d="M52,40.9c-0.2,0.6-0.2,1.3-0.2,2
			C51.9,42.3,52,41.6,52,40.9z"/>
		
			<radialGradient id="SVGID_00000041994261494496525660000007272768494943401114_" cx="50.0001" cy="26.1196" r="26.7286" gradientUnits="userSpaceOnUse">
			<stop  offset="0" style="stop-color:#FFF500"/>
			<stop  offset="0.3576" style="stop-color:#FFDD00"/>
			<stop  offset="1" style="stop-color:#FFA800"/>
		</radialGradient>
		<path style="fill:url(#SVGID_00000041994261494496525660000007272768494943401114_);" d="M59.9,14c-1.1-8.9-18.5-4.4-20,0.8
			c-2.6-3.9-9.5-2.5-10.7,2.9C23,13.2,5.5,28.6,26,30.6c-6.9,5.6,2.4,9,7.1,6.9c0.6,5,8.4,4.2,9.1,0.5c1.3,4.5,7.8,5.2,10.2,1.4
			c0.6,6.1,14.5,4.2,14.4-1.6c2.5,3.8,11-1.3,9.4-4.7c8.9,4.3,11-15.9-0.1-12.4C81.1,12.4,64.4,10.9,59.9,14z"/>
		
			<radialGradient id="SVGID_00000075842038455405225470000017315684189658043535_" cx="50" cy="27.9461" r="26.1677" gradientUnits="userSpaceOnUse">
			<stop  offset="0" style="stop-color:#FFBE00"/>
			<stop  offset="0.3576" style="stop-color:#FFAC00"/>
			<stop  offset="1" style="stop-color:#FF8200"/>
		</radialGradient>
		<path style="fill:url(#SVGID_00000075842038455405225470000017315684189658043535_);" d="M24.4,17.2C17.5,18.9,9.6,29,26,30.6
			c-6.9,5.6,2.4,9,7.1,6.9c0.6,5,8.4,4.2,9.1,0.5c1.3,4.5,7.8,5.2,10.2,1.4c0.6,6.1,14.5,4.2,14.4-1.6c2.5,3.8,11-1.3,9.4-4.7
			c8.9,4.3,11-15.9-0.1-12.4c3.1-5.2-2-7.8-7.5-8.3c0.1,0.1,0.2,0.3,0.4,0.3c1.6,0,4.3,2,1.4,3.7c4.1-0.1,6.3,2.8,2.1,7.3
			c2.1,0.2,4.5,1.1,4.6,3.6c0.1,2.5-2,3.7-4.2,4.1c0.6,1.3,0.1,2.8-1.7,3.6c-1.7,0.7-3.6,0.5-5-0.5c-0.4,1.3-1.4,2.4-2.9,2.6
			c-1.1,0.2-2-0.1-2.6-0.6c-0.6,0.9-1.5,1.5-2.8,1.5c-1.7,0-2.9-1-3.3-2.3c-1.3,0.9-3,1.3-3.9,0.6c-0.6,0.6-1.5,0.9-2.5,0.4
			c-0.9-0.4-1.5-1.1-1.8-1.9c-1.6,1.3-3.9,2-5,0.6c-0.9,0.7-1.9,1.1-3.1,0.9c-0.1,0-0.2,0-0.3-0.1c-1.2,0.9-2.9,1-4.3,0
			c-1.1-0.7-1.6-1.6-1.7-2.5c-1,0.1-2.1-0.2-3-1.2c-1.4-1.5-0.9-3,0.1-4.2c-1-0.4-1.7-1.1-1.7-2.1c-2.5,0.1-5.1-0.8-5.4-3.8
			C21.8,20.3,22.9,18.5,24.4,17.2z"/>
		<path class="st13" d="M40.7,30.8c1.8,3.6,6.5,1.7,7.4-1.9c2.7,2.5,7.5,3.4,9.5-0.4c2.2,0.9,4.9,1.3,6.8-0.5
			c6.6,3.4,6.6-9.3-0.7-6.8c-0.3-3-3.6-4.2-6.1-1.8c-1.4-2.3-3.5-2.1-5.5-0.5c-1.8-4.7-12.3-1.8-13.5,1.5c-3.3-3.9-10.9,2.2-6.4,5.1
			C28.2,30.5,37.2,33,40.7,30.8z"/>
		<g>
			
				<radialGradient id="SVGID_00000129900278956287005750000013986108867684507070_" cx="43.6566" cy="74.1657" r="5.2769" gradientUnits="userSpaceOnUse">
				<stop  offset="0" style="stop-color:#FF8F00"/>
				<stop  offset="0.3576" style="stop-color:#FF8300"/>
				<stop  offset="1" style="stop-color:#FF6900"/>
			</radialGradient>
			<path style="fill:url(#SVGID_00000129900278956287005750000013986108867684507070_);" d="M44.1,79.2c1.3-3.8,3.1-8.1,3.3-11.5
				c-1,3.7-2.6,8.7-7.5,9.3C40.7,82.3,42.5,80.6,44.1,79.2z"/>
			
				<radialGradient id="SVGID_00000086688551672137827050000000568005185857859207_" cx="51.8774" cy="73.943" r="6.2855" gradientUnits="userSpaceOnUse">
				<stop  offset="0" style="stop-color:#FF8F00"/>
				<stop  offset="0.3576" style="stop-color:#FF8300"/>
				<stop  offset="1" style="stop-color:#FF6900"/>
			</radialGradient>
			<path style="fill:url(#SVGID_00000086688551672137827050000000568005185857859207_);" d="M48.5,79.1c-0.2-2.1-0.6-4.4-0.5-6.6
				c-0.4,2.5-1,5.1-2.5,7.1c3.8,0.9,8.6,0.7,12.9-2.5c-1.1-0.9-2.4-1.5-3.3-2.8c-1.2-1.7-2.5-3.6-2.8-5.5c0.4,3.9,2.3,5.5,3.2,8.1
				c-1.2-1.4-2.5-1.8-3.4-3.5c-0.9-1.7-1.3-3.7-1.8-5.6c0.3,1.4,0.3,2.9,0.6,4.3c0.3,1.9,1.2,4.3,0.8,6.2c-1.6-1.3-2.5-4.1-2.3-6.2
				C48.7,74.3,48.6,76.9,48.5,79.1z"/>
			
				<radialGradient id="SVGID_00000122685991462646302930000017401451075986032831_" cx="50.046" cy="67.093" r="0.5329" gradientUnits="userSpaceOnUse">
				<stop  offset="0" style="stop-color:#FF8F00"/>
				<stop  offset="0.3576" style="stop-color:#FF8300"/>
				<stop  offset="1" style="stop-color:#FF6900"/>
			</radialGradient>
			<path style="fill:url(#SVGID_00000122685991462646302930000017401451075986032831_);" d="M50.2,67.8c-0.1-0.5-0.2-1-0.4-1.5
				C50,66.8,50.1,67.3,50.2,67.8z"/>
			
				<radialGradient id="SVGID_00000157290486105489297720000013769982251582062215_" cx="48.1781" cy="70.9107" r="1.0921" gradientUnits="userSpaceOnUse">
				<stop  offset="0" style="stop-color:#FF8F00"/>
				<stop  offset="0.3576" style="stop-color:#FF8300"/>
				<stop  offset="1" style="stop-color:#FF6900"/>
			</radialGradient>
			<path style="fill:url(#SVGID_00000157290486105489297720000013769982251582062215_);" d="M48.4,69.4c-0.3,1-0.4,2-0.5,3.1
				C48.1,71.4,48.3,70.3,48.4,69.4z"/>
		</g>
	</g>
	<g>
		
			<radialGradient id="SVGID_00000147186754430581291840000014872965357024504255_" cx="25.9234" cy="35.233" r="8.3605" gradientUnits="userSpaceOnUse">
			<stop  offset="0" style="stop-color:#FFF500"/>
			<stop  offset="0.3576" style="stop-color:#FFDD00"/>
			<stop  offset="1" style="stop-color:#FFA800"/>
		</radialGradient>
		<path style="fill:url(#SVGID_00000147186754430581291840000014872965357024504255_);" d="M22.2,31.7h-0.3c-3.3-3.8-9.3,5.2-2,5.3
			c-3.3,3.9,9.1,8.8,9.3,2c3.2,3.7,10.9-5.5,1.7-7.1C32.9,28.1,21.9,25.9,22.2,31.7z"/>
		
			<radialGradient id="SVGID_00000148652402546365016220000018104267976663403199_" cx="25.9238" cy="35.8062" r="8.1225" gradientUnits="userSpaceOnUse">
			<stop  offset="0" style="stop-color:#FF8F00"/>
			<stop  offset="0.3576" style="stop-color:#FF8300"/>
			<stop  offset="1" style="stop-color:#FF6900"/>
		</radialGradient>
		<path style="fill:url(#SVGID_00000148652402546365016220000018104267976663403199_);" d="M27.3,36.7c-0.6,1.4-1.9,2.4-3.6,2
			c-1.6-0.4-2.4-1.7-2.6-3.1c-0.8,0.1-1.6,0-2.4-0.6c-1.1-0.9-1.4-2-1-3.2c-1.8,1.8-2.2,5.1,2.2,5.2c-3.3,3.9,9.1,8.8,9.3,2
			c3.2,3.7,10.9-5.5,1.7-7.1c0.5-1,0.1-1.9-0.8-2.6c0.5,1,0.3,2.1-0.4,3c1,0.7,1.5,1.7,1,3C30.1,36.7,28.7,36.9,27.3,36.7z"/>
		<path class="st4" d="M19.2,33.4c0.7,0.5,1.5-0.4,2.5,0.5C21.3,31.7,18.2,31.5,19.2,33.4z"/>
		<path class="st4" d="M29.7,31.4c1.3-2.6-3.1-3.3-4.7-2.5c-1.6,0.8-2.8,3.2-1.6,4.9C24.8,30.2,28.4,33.7,29.7,31.4z"/>
	</g>
	
		<radialGradient id="SVGID_00000019673369584467980030000001843787421216780962_" cx="33.4353" cy="85.5841" r="9.506462e-02" gradientUnits="userSpaceOnUse">
		<stop  offset="0" style="stop-color:#FFF500"/>
		<stop  offset="0.3576" style="stop-color:#FFDD00"/>
		<stop  offset="1" style="stop-color:#FFA800"/>
	</radialGradient>
	<path style="fill:url(#SVGID_00000019673369584467980030000001843787421216780962_);" d="M33.3,85.6C33.3,85.6,33.3,85.6,33.3,85.6
		C33.3,85.7,33.4,85.7,33.3,85.6C33.6,85.5,33.6,85.4,33.3,85.6z"/>
	<g>
		
			<radialGradient id="SVGID_00000109740094226188247270000011288331901905056137_" cx="50.2241" cy="83.3056" r="18.2187" gradientUnits="userSpaceOnUse">
			<stop  offset="0" style="stop-color:#EAE689"/>
			<stop  offset="0.3576" style="stop-color:#E1D480"/>
			<stop  offset="1" style="stop-color:#CEAD6D"/>
		</radialGradient>
		<path style="fill:url(#SVGID_00000109740094226188247270000011288331901905056137_);" d="M42.1,79.7c-0.3-3.8-5.7-6-7.8-2.1
			c-4.6-6.1-15.3,9.6-2.6,8.4c0,0,0,0,0,0c0.2-0.2,0.3-0.2,0,0c0,0,0,0-0.1,0c-1.9,4.7,15.2,7.9,16.6,1c1.3,5.4,13.6,4,15.2,0.4
			c3.4,6,19-2.1,6.5-7c1.1-5.3-6.3-5.9-7.4-0.7c-1.7-5.2-9.3-3.2-12.1,0C52.2,75.6,43.2,75.8,42.1,79.7z"/>
		
			<radialGradient id="SVGID_00000129916829558021838910000007821154145918663096_" cx="50.2255" cy="83.6108" r="18.1544" gradientUnits="userSpaceOnUse">
			<stop  offset="0" style="stop-color:#B19E86"/>
			<stop  offset="0.3576" style="stop-color:#AB9680"/>
			<stop  offset="1" style="stop-color:#9E8473"/>
		</radialGradient>
		<path style="fill:url(#SVGID_00000129916829558021838910000007821154145918663096_);" d="M27,79.2c-2.2,3.1-2.3,7.5,4.7,6.9
			c-1.9,4.7,15.2,7.9,16.6,1c1.3,5.4,13.6,4,15.2,0.4c3.4,6,19-2.1,6.5-7c0.5-2.2-0.6-3.6-2-4.1c0.7,1.2,0.6,2.9,0,4.4
			c2,0.7,4.4,1.8,3.2,3.8c-1.4,2.4-5,1.6-6.2-0.5c-0.6,0.8-1.6,1.4-2.6,1.3c-0.9-0.1-1.5-0.4-2.1-0.9c-0.1,0.1-0.1,0.2-0.2,0.3
			c-2.7,3.2-9.2,2.8-9.8-1.3c-1.3,1-3.1,1.3-4.7,0.7c-2.4,3.7-7.5,3.1-9.2-0.4c-0.2,0-0.3,1.4-2.2,1.3c-1.2,0-1.5-0.6-2.1-1.5
			c-0.6,0.2-1.3,0.3-2,0.3c-1.2-0.1-2.6-0.7-3.2-1.8c-0.4-0.9-0.4-1.7-0.1-2.4C27,79.4,27,79.3,27,79.2z"/>
	</g>
	
		<radialGradient id="SVGID_00000152958888867738101790000001433924502446673591_" cx="50.2244" cy="56.8618" r="13.7519" gradientUnits="userSpaceOnUse">
		<stop  offset="0" style="stop-color:#FFF500"/>
		<stop  offset="0.3576" style="stop-color:#FFDD00"/>
		<stop  offset="1" style="stop-color:#FFA800"/>
	</radialGradient>
	<path style="fill:url(#SVGID_00000152958888867738101790000001433924502446673591_);" d="M32.4,55.7c-1.3,2.1,1.5,3.6,3.3,2.5
		c-0.4,1.8,2,2.8,3.2,1.7c0,2,1.9,2.5,3.3,1.5c1.2,1.7,4.3,2,5-0.3c1.1,2.2,5.1,1.1,5.7-1c0.1,1.9,2.7,1.7,3.9,1.1
		c1.4,2,3.1,0,3.6-1.5c0.8,3.4,5.3-1.4,5.7-2.9c0.1,0.1,1.4,0.3,1.6,0.4c3-2-2.1-6.9-3.9-4.8c-0.1-2.4-3.1-1.2-3.8,0.2
		c-3.9-0.1-4.5,3.9-4.5,3.9c-1.2,0.5-2.3-0.8-3.5-1c-1.4-0.2-2.2,0.7-3.4,1.1c-2.1-2.8-4.1-1.1-6.6-0.4c-0.3-0.8-0.8-1.5-1.7-1.5
		c-0.2-1.2-1.4-1.1-2.2-0.7c1.9-2.4-2.1-2-3.3-1.5c-0.1,0.2,0,0.3,0,0.5v-0.4C33.5,52.4,30.2,54.9,32.4,55.7z"/>
	
		<radialGradient id="SVGID_00000086684573019743234750000018379771037077986442_" cx="50.2241" cy="56.8613" r="13.7524" gradientUnits="userSpaceOnUse">
		<stop  offset="0" style="stop-color:#FFBE00"/>
		<stop  offset="0.3576" style="stop-color:#FFAC00"/>
		<stop  offset="1" style="stop-color:#FF8200"/>
	</radialGradient>
	<path style="fill:url(#SVGID_00000086684573019743234750000018379771037077986442_);" d="M32.4,55.7c-1.3,2.1,1.5,3.6,3.3,2.5
		c-0.4,1.8,2,2.8,3.2,1.7c0,2,1.9,2.5,3.3,1.5c1.2,1.7,4.3,2,5-0.3c1.1,2.2,5.1,1.1,5.7-1c0.1,1.9,2.7,1.7,3.9,1.1
		c1.4,2,3.1,0,3.6-1.5c0.8,3.4,5.3-1.4,5.7-2.9c0.1,0.1,1.4,0.3,1.6,0.4c1.5-1,1-2.7-0.1-3.9c-0.5,1.1-2.1,2.3-3.5,3.2
		c-0.3,0.2-0.7,0.1-0.9-0.1c0,0-0.1-0.1-0.1-0.1c-0.4,0-0.8,0-1.2,0c-0.3,1.6-1.2,2.5-2.8,1.8c-0.8,0.8-1.9,1.3-2.5,0.6
		c-1.4,0.8-3.1,0.9-3.6-0.4c-0.5,0.2-0.9,0.2-1.5,0c-0.6,0.8-1.5,1.5-2.4,0.9c-0.3-0.2-1.6-1.4-1.8-0.9c-0.3,0.7-1.2,1.1-1.8,1.4
		c-0.4,0.2-0.8,0-1-0.3c-1.8,0.7-4,0.7-3.7-1.4c-0.5-0.1-0.8-0.4-1.2-0.8c-1.3,0.7-2.5,0.4-2.9-0.9c-2,0.5-3.2-1.9-2.4-3.7
		C33,52.8,30.4,55,32.4,55.7z"/>
	<path class="st13" d="M45.4,58.4c0.9-1.4,1.7-0.3,2.8-0.3c1.1,0,1.3-0.8,2.6-0.2c0.4-1,2.6-0.9,3.4-0.4c-0.9-0.7-3.6-2.4-3.9-0.3
		c-0.7-0.6-2.1-1.1-2.7-0.2c-1.3-1-5.4-2.1-5.3,0.8l-0.2,0.2C42.9,57.5,45.4,56.8,45.4,58.4z"/>
	<path class="st13" d="M57,57.1c0,0.1,0,0.1,0,0.2L57,57.1C57,57.1,57,57.1,57,57.1z"/>
	<path class="st13" d="M57,57.1c-0.1-1.4,2.8-3.1,3.8-1.6c-0.1-1.2,1-1.6,2-1.1c0,0.1,0,0.3,0,0.4c0.5-1,2.6-1.5,2.5,0
		c1.2-1.9-1.1-2.7-2.6-1.9c-0.6-1.7-2.4-0.6-2.1,0.8C58.5,53.2,55.4,54.5,57,57.1z"/>
	<path class="st13" d="M40.9,57.3c1-0.8,0.3-3.2-1.1-2c-0.3-1.1-1.3-1.5-2.3-1c0-0.2,0-0.3-0.1-0.5c-0.5-0.4-1.2-0.4-1.8-0.2
		l-0.3,0.2c0.6,1.1,3.6,0.9,3.2,2.6C39.4,55.8,40.8,56,40.9,57.3z"/>
	<path class="st13" d="M49.8,79.5c-0.3,0.3-0.4,0.6-0.5,1C49.6,80.2,49.7,79.8,49.8,79.5z"/>
	<path class="st13" d="M29.2,81C29.2,81,29.2,81.1,29.2,81c0.1,0.3,0.1,0,0.2-0.1L29.2,81z"/>
	<path class="st13" d="M38,76.9c-1.6-0.3-3.4,0.9-3.2,2.7c-0.8-1.7-2.4-2.7-4.3-1.9c-1.1,0.4-3.1,3.2-1.5,3.5l0.2-0.1
		c0.3-1.2,0.2-1.9,1.5-1.9c0.9,0,2.3,0.7,2,1.8c0.9-1.1,2.7-0.5,3.2,0.7c0.3-1.1,0.3-2.9,2.1-2.4c1.4,0.4,1.5,1.9,0.9,2.9
		c0.7-0.8,2.3-0.7,2.5,0.3c1-0.9,2.8-1.5,3.8-0.3c0.5-1.8,4.6-3,4-0.5c1.4-1.2,4.4-1,4.7,1.2c0.7-1.7,1.7-2.8,3.8-2.6
		c1.5,0.1,3.2,1.2,3,2.9c1.1-1.5,2.9-2.3,4.5-1.2c0.3,0.1,0.6,0.5,0.6,0.7c0.1-1.4,0.3-3.5,1.5-3.3c0,0.1,1,0.2,0.3-1.4
		c-1.5-2.3-3.5,0.9-3.4,2.9c-0.7-1.2-2.6-0.4-3.1,0.9c1.4-4.7-7.5-5.4-7.6-1.5c-0.5-1.3-2.6-1.4-3.5-0.5c-0.1,0.3-0.2,0.6-0.5,1
		c0-0.4,0.2-0.7,0.5-1c0.3-1.9-3.2-2.7-2.8-0.6c-1-1.3-3.7-0.4-3.1,1.3c-0.5-1.5-2.5-0.2-3.2,0.6C40.8,79.2,39.5,77.2,38,76.9z"/>
</g>
</svg>
